<svg id="Layer_1" data-name="Layer 1" xmlns="http://www.w3.org/2000/svg" viewBox="0 0 904.39 869.02">
  <title>aries</title>
  <g>
    <polygon points="238.43 554.21 10.85 346.08 314.48 292.05 442.1 11.29 587.32 283.36 893.77 317.98 679.88 540.16 741.66 842.31 464.26 707.56 195.99 859.68 238.43 554.21"/>
    <path d="M583.14,34.08,722.35,294.89l2.48,4.64,5.22.59,293.77,33.19-205,213-3.65,3.79,1.05,5.15,59.22,289.65L609.49,715.7l-4.73-2.3L600.19,716,343,861.82,383.7,569l.72-5.21-3.88-3.55L162.38,360.72l291.07-51.8,5.18-.92,2.18-4.79L583.14,34.08m-.72-22.58L451.7,299.08l-311,55.35,233.11,213.2-43.47,312.9L605.12,724.7l284.15,138L826,553.23l219.08-227.59L731.17,290.18,582.42,11.49Z" transform="translate(-140.68 -11.49)"/>
  </g>
  <path d="M445.27,424.32c-1.22-6.73-2.43-14.17-.24-20.84,2.61-8,10.16-10.65,17.46-12.95,13-4.1,27.05-7.13,40.79-5.64,14.64,1.59,27,9.13,34.35,22,7.12,12.41,9.88,27.1,12.58,41A432.5,432.5,0,0,1,557.36,505c.11,1.92,3.11,1.93,3,0a439.39,439.39,0,0,0-7.08-57c-3-15.59-6.08-32.43-15.07-45.86-18-26.9-53.45-22.58-80.16-13.32-6.68,2.32-12.74,5.66-15.45,12.56-3,7.51-1.62,16-.22,23.72.34,1.9,3.24,1.09,2.89-.8Z" transform="translate(-140.68 -11.49)"/>
  <path d="M457.94,494.63c-3.72-16-4-33.75,4-48.58,6.71-12.42,18.94-21.89,33.26-23,1.91-.15,1.93-3.15,0-3-14.89,1.14-27.75,10.44-35.14,23.21-9.12,15.74-9,34.91-5,52.15.44,1.88,3.33,1.08,2.89-.8Z" transform="translate(-140.68 -11.49)"/>
  <path d="M594.1,611a402.84,402.84,0,0,0-2.32-82.14c-.25-1.89-3.25-1.91-3,0A402.84,402.84,0,0,1,591.1,611c-.14,1.93,2.86,1.92,3,0Z" transform="translate(-140.68 -11.49)"/>
  <path d="M596.94,595a767.54,767.54,0,0,0-6.68-97.35c-3.89-29.25-8.63-58.8-22.13-85.4-12.5-24.63-34-45.31-60.85-53.31-29.32-8.74-58,2.53-80,22.17-14.25,12.69-20,29.65-16.44,48.39,3.23,17.06,14.38,30.95,25,44.12,4.57,5.69,14.33,4.76,19.09,0,5.62-5.62,4.58-13.39,0-19.09-7-8.76-14.52-18.06-17.3-29a27.54,27.54,0,0,1-.25-13.06c1.31-4.85,4.8-8.52,9-12.29,8.07-7.17,17.77-13.22,28.12-16,9.52-2.52,18.46-1.83,28.56,1.67,19.65,6.81,34.48,24.11,43.65,43.76,9.94,21.28,13.71,46.45,16.85,69.91A746.89,746.89,0,0,1,569.94,595c.09,17.37,27.09,17.41,27,0Z" transform="translate(-140.68 -11.49)" fill="#fff"/>
  <path d="M592.44,595.07c-3.57-54.47,11.46-107.36,29.08-158.33,7.31-21.15,13.82-45.26,33.82-56.46,16.54-9.27,39.12-6.31,49.85,9.55,6.68,9.88,8.17,21.17,6.83,33.3-1.49,13.45-7.29,26.65-13.22,38.81-3.19,6.55-1.78,14.6,4.84,18.47,5.93,3.47,15.26,1.74,18.47-4.84,12.87-26.39,23.73-57.14,12.83-86.21-10.75-28.69-39.79-45-69.91-40.53-14.3,2.14-27.73,9.22-38.14,19.17s-17.06,23.17-22.4,36.55a683,683,0,0,0-27.8,86.57c-8.5,33.87-13.55,69-11.26,103.95.48,7.28,5.86,13.5,13.5,13.5,6.94,0,14-6.19,13.5-13.5Z" transform="translate(-140.68 -11.49)" fill="#fff"/>
</svg>
