<svg id="Layer_1" data-name="Layer 1" xmlns="http://www.w3.org/2000/svg" viewBox="0 0 837.13 797.05">
  <title>leo</title>
  <g>
    <polygon points="210.53 508.65 1.08 305.9 289.41 262.98 417.51 1.13 547.43 262.09 836.05 303.01 628.01 507.21 678.29 794.35 419.8 659.59 162.24 796.14 210.53 508.65"/>
    <path d="M614.58,121.16,743.93,381l.23.47.52.07L1032,422.26,824.92,625.56l-.38.37.09.52,50.05,285.89L617.32,778.17l-.47-.24-.46.25L360,914.12,408,627.89l.09-.52-.38-.37L199.22,425.14l287.07-42.73.52-.08.23-.47L614.58,121.16m0-2.26L486.14,381.42l-289.08,43,210,203.27L358.65,915.95l258.22-136.9L876,914.16l-50.4-287.88,208.58-204.72-289.37-41L614.57,118.9Z" transform="translate(-197.06 -118.9)" fill="#fff"/>
  </g>
  <path d="M712.21,663.62c-6.8,6.26-18.72,2.09-23.56-5.79s-4.62-17.75-4.17-27c.52-10.83,1.14-21.72,3.52-32.31,3.69-16.42,11.48-31.58,17-47.49,7.08-20.49,10.33-42.71,6.26-64s-16-41.57-34.4-53c-20.66-12.88-46.75-13.5-70.81-9.77-18.52,2.87-38.4,9.31-48.22,25.27-7.37,12-7.53,27.27-3.65,40.78,3.82,13.3,11,31,22.78,37.62,11.41,6.43,24.75,6.58,36.14,15.15A80,80,0,1,1,565,527q4.07,0,8,.4" transform="translate(-197.06 -118.9)" stroke="#fff" stroke-miterlimit="10" stroke-width="16"/>
  <path d="M706.09,671.08a1.5,1.5,0,0,0,0-3,1.5,1.5,0,0,0,0,3Z" transform="translate(-197.06 -118.9)" fill="#fff"/>
  <path d="M706,669a60.17,60.17,0,0,1,6.49-22.58,57.9,57.9,0,0,1,14.2-17.73,55.91,55.91,0,0,1,19.26-10.5A54.1,54.1,0,0,1,767,616a52.08,52.08,0,0,0-19.52,5.88,49.89,49.89,0,0,0-15.14,12.46A47.84,47.84,0,0,0,723.58,651,46.11,46.11,0,0,0,722,669Z" transform="translate(-197.06 -118.9)" fill="#fff"/>
</svg>
