<svg id="Layer_1" data-name="Layer 1" xmlns="http://www.w3.org/2000/svg" viewBox="0 0 845.98 825.53">
  <title>pisces</title>
  <g>
    <polygon points="412.54 667 157.67 790.89 213.97 509.6 16.89 301.15 298.64 270.79 431.63 18.26 549.39 280.58 828.82 332.86 619.8 525.55 659.32 810.37 412.54 667"/>
    <path d="M616.67,94.73,726,338.26l3.43,7.64,8.23,1.54L997.29,396l-194.22,179-6.15,5.67,1.15,8.29,36.69,264.41-228.9-133-7.37-4.28-7.66,3.73-236.53,115,52.32-261.41,1.62-8.12-5.69-6L219.4,365.6l261.47-28.18,8.47-.91,4-7.54L616.67,94.73m1.15-36.52L479.16,321.51,185.61,353.15,390.93,570.31l-58.65,293L597.81,734.28l257.3,149.47-41.2-296.94,217.67-200.66-291-54.44L617.81,58.22Z" transform="translate(-185.61 -58.22)"/>
  </g>
  <path d="M485.25,386.56a1.5,1.5,0,0,0,0-3,1.5,1.5,0,0,0,0,3Z" transform="translate(-185.61 -58.22)"/>
  <path d="M532,539a184.38,184.38,0,0,0-.59-40.12,151.14,151.14,0,0,0-10.16-39.17C516,447.22,508.86,435.32,499,425.79a68,68,0,0,0-16.73-12A58.33,58.33,0,0,0,462,408a60.22,60.22,0,0,1,21.63,2.26,73.63,73.63,0,0,1,20.07,9.68c12.49,8.42,22.65,20,30.81,32.74A169.75,169.75,0,0,1,553.38,494,210.57,210.57,0,0,1,562,539Z" transform="translate(-185.61 -58.22)" fill="#fff"/>
  <path d="M562,539q-1,12.71-2.94,25.26t-5.12,24.82a242.21,242.21,0,0,1-7.42,24.16,215,215,0,0,1-10,23.18,165.59,165.59,0,0,1-13,21.62A118.46,118.46,0,0,1,507,677a87.56,87.56,0,0,1-9.88,7.8,68.27,68.27,0,0,1-11,6A51.45,51.45,0,0,1,462,695a49.54,49.54,0,0,0,22.34-7.58,63.63,63.63,0,0,0,9.28-7.08,81,81,0,0,0,7.91-8.54c9.73-12.12,16.39-26.42,21.17-41.14a198.17,198.17,0,0,0,5.78-22.51,221.7,221.7,0,0,0,3.31-23q1.05-11.55,1.12-23.12T532,539Z" transform="translate(-185.61 -58.22)" fill="#fff"/>
  <path d="M669,539q1-10.91,2.83-21.65c1.26-7.15,2.87-14.23,4.78-21.21a196.73,196.73,0,0,1,6.83-20.57,176.76,176.76,0,0,1,9.1-19.62c6.89-12.63,15.5-24.51,26.54-33.81,1.33-1.2,2.84-2.23,4.24-3.33s3-2,4.47-3l2.33-1.34c.39-.22.77-.45,1.17-.66l1.21-.59,2.41-1.17,2.49-1A46,46,0,0,1,758,408a44.12,44.12,0,0,0-19,6.44,58.78,58.78,0,0,0-14.67,13c-8.32,10.13-14,22.12-18.08,34.5a160,160,0,0,0-4.87,18.94,176.24,176.24,0,0,0-2.68,19.33c-.55,6.48-.81,13-.76,19.44s.43,12.93,1,19.34Z" transform="translate(-185.61 -58.22)" fill="#fff"/>
  <path d="M699,539q-.89,10.22-1.05,20.55t.67,20.65A201.1,201.1,0,0,0,705.81,621,141.8,141.8,0,0,0,713,640.42a98.26,98.26,0,0,0,10.47,17.86,61.35,61.35,0,0,0,14.77,14.49,43.84,43.84,0,0,0,9.31,4.85A42.75,42.75,0,0,0,758,680a43.72,43.72,0,0,1-10.93-.57A46.68,46.68,0,0,1,736.45,676a66.88,66.88,0,0,1-18.54-12.76A107.53,107.53,0,0,1,703.26,646a154.83,154.83,0,0,1-11.41-19.55,219.68,219.68,0,0,1-15.43-42.56q-2.77-11-4.65-22.27T669,539Z" transform="translate(-185.61 -58.22)" fill="#fff"/>
  <path d="M448.5,539.5c6.75-1.67,13.5-3,20.25-4.16s13.5-2.22,20.25-3.18q20.25-2.78,40.5-4.43c27-2.24,54-3.2,81-3.23s54,1,81,3.19q20.25,1.65,40.5,4.44c6.75,1,13.5,2,20.25,3.19s13.5,2.5,20.25,4.18c-6.75,1.68-13.5,3-20.25,4.18s-13.5,2.23-20.25,3.19q-20.25,2.78-40.5,4.44c-27,2.23-54,3.19-81,3.19s-54-1-81-3.23q-20.25-1.65-40.5-4.43c-6.75-1-13.5-2-20.25-3.18S455.25,541.17,448.5,539.5Z" transform="translate(-185.61 -58.22)" fill="#fff"/>
</svg>
