<svg id="Layer_1" data-name="Layer 1" xmlns="http://www.w3.org/2000/svg" viewBox="0 0 937.8 897.8">
  <title>sagittarius</title>
  <g>
    <polygon points="239.63 573.79 1.08 350.54 323.39 297 461.99 1.13 612.52 291.11 936.74 331.51 707.46 564.28 769.23 885.11 477 738.99 190.96 896.87 239.63 573.79"/>
    <path d="M588,7.88,737.89,296.73l.24.47.52.07,323,40.24L833.22,569.36l-.37.37.1.52,61.53,319.58L603.4,744.27l-.47-.24-.46.25L317.54,901.56,366,579.75l.08-.52-.38-.36L128.1,356.49l321-53.34.52-.09.22-.48L588,7.88m0-2.26L449,302.16l-323,53.67L365,579.6,316.25,903.42,603,745.17l292.9,146.46L833.94,570.06l229.8-233.3-325-40.49L587.91,5.62Z" transform="translate(-125.93 -5.62)"/>
  </g>
  <line x1="355.57" y1="634.88" x2="578.57" y2="407.88" fill="none" stroke="#fff" stroke-miterlimit="10" stroke-width="18"/>
  <line x1="469.07" y1="411.38" x2="581.07" y2="409.38" fill="none" stroke="#fff" stroke-miterlimit="10" stroke-width="18"/>
  <line x1="580.07" y1="498.38" x2="572.07" y2="400.38" fill="none" stroke="#fff" stroke-miterlimit="10" stroke-width="18"/>
  <line x1="423.07" y1="457.38" x2="529.07" y2="554.38" fill="none" stroke="#fff" stroke-miterlimit="10" stroke-width="18"/>
</svg>
