<svg id="Layer_1" data-name="Layer 1" xmlns="http://www.w3.org/2000/svg" viewBox="0 0 964.86 927.15">
  <title>scorpio</title>
  <g>
    <polygon points="469.54 754.11 174.48 897.4 240.22 576.04 12.75 339.7 338.7 302.91 493.19 13.55 628.9 312.18 951.84 369.69 709.76 591.03 754.86 915.94 469.54 754.11"/>
    <path d="M678.26,90.29,807.63,375l2.61,5.74,6.21,1.11,307.86,54.82-230.78,211-4.66,4.26.87,6.25,43,309.74-272-154.28-5.49-3.11-5.68,2.76L368.3,949.89,431,643.52l1.26-6.18-4.37-4.55L211,407.49l310.73-35.07,6.27-.71,3-5.57L678.26,90.29m.87-27.1L520.4,360.5l-334.9,37.79L419.21,641.12,351.67,971.3,654.83,824.07,948,990.34,901.64,656.52,1150.36,429.1,818.56,370,679.13,63.19Z" transform="translate(-185.51 -63.19)"/>
  </g>
  <path d="M610.28,626.93a39.76,39.76,0,0,1,6.85-19.05l-2.74-.36A114.75,114.75,0,0,1,617.15,649c-.22,1.91,2.78,1.9,3,0a117.12,117.12,0,0,0-2.87-42.23,1.52,1.52,0,0,0-2.74-.36,42.77,42.77,0,0,0-7.26,20.57c-.17,1.92,2.83,1.91,3,0Z" transform="translate(-185.51 -63.19)"/>
  <path d="M491,614.5a1.5,1.5,0,0,0,0-3,1.5,1.5,0,0,0,0,3Z" transform="translate(-185.51 -63.19)"/>
  <path d="M476.69,674.76A1256.79,1256.79,0,0,1,527.08,451.6c.6-1.84-2.3-2.63-2.89-.8a1261,1261,0,0,0-50.49,224c-.25,1.91,2.75,1.89,3,0Z" transform="translate(-185.51 -63.19)"/>
  <path d="M495.41,465.85c.93-.26,1.86-.49,2.8-.73.45-.11,2.77-.35.42-.13s2.49,0,3.25,0a13.42,13.42,0,0,1,2.81.21c-.53-.16-3.9-.85-.61.06,1.82.5,3.64,1.14,5.46,1.62-.2-.05-2.8-1.36-1-.43.86.44,1.74.84,2.6,1.29q2.26,1.21,4.39,2.63c.82.55,1.62,1.12,2.41,1.71-.25-.19-2.11-1.91-.76-.49s2.94,2.66,4.3,4.1c.86.91,3.56,4.22,1.5,1.47a56.64,56.64,0,0,1,3.29,4.91c.94,1.58,1.8,3.22,2.59,4.88.37.78.75,1.56,1.08,2.35-1-2.35,0,.27.37,1.31a94.37,94.37,0,0,1,3.2,11.6c.42,2,.76,4,1.1,6,.1.58.43,3.52.07.38.13,1.16.27,2.31.38,3.47,1.85,18.59,1.52,37.45,1.93,56.1L538.32,627l1.45,66.78L575.13,689c-.83-4.33-1.6-8.66-2.3-13-.3-1.86-.57-3.73-.86-5.6-.06-.38-.5-3.52-.14-.82-.17-1.25-.32-2.5-.48-3.74q-1.61-13.11-2.38-26.31a418.53,418.53,0,0,1,.21-51.87,336.73,336.73,0,0,1,6.54-49.44q2.58-12.9,6-25.62c.94-3.51,1.94-7,3-10.47q.9-2.8,1.9-5.56c.33-.9,2.24-5.5,1-2.69A88.67,88.67,0,0,1,593,483.5c.87-1.42,1.84-2.76,2.76-4.15-1.57,2.37-.24.27.19-.21.69-.78,1.37-1.57,2.09-2.32,1.27-1.33,2.71-2.47,4-3.77s-.27.16-.56.37c.85-.61,1.71-1.21,2.59-1.77,1.32-.85,2.7-1.56,4.06-2.34.68-.39,3.11-1.23-.06-.09,1-.35,1.93-.71,2.91-1,.73-.22,1.48-.42,2.22-.6.57-.14,3.77-.7,1.37-.36-2.07.29,2.21,0,2.95,0s3.86.29,1.4,0c-2.24-.27.13.06.5.16,1.35.36,6,2.06,2.45.44a41.78,41.78,0,0,1,3.79,2c.82.49,1.6,1,2.41,1.54.33.22,2.05,1.72.47.32s.17.22.39.44c.69.68,1.42,1.32,2.09,2s4.12,5.1,1.91,1.93a65.55,65.55,0,0,1,5,8.14c.33.65.63,1.32.95,2-.36-.75-1.3-3.63-.05,0,.66,2,1.32,3.9,1.86,5.88s1,4,1.41,6c.17.87.33,1.73.48,2.6.08.45.59,4.07.33,2-.24-1.9.09,1,.1,1.13.08.88.17,1.77.25,2.65.2,2.37.35,4.73.47,7.11.88,18,.87,36,1.24,54l2.54,124L681,682.44c-.52-1-1-2-1.53-3,.11.22-2.09-4.77-1.14-2.42.79,1.95-.45-1.28-.61-1.72q-.71-1.95-1.32-3.92a129,129,0,0,1-3.34-14.49c.63,3.3.05.56,0-.16-.11-1.11-.23-2.21-.33-3.32-.21-2.51-.35-5-.43-7.53-.16-5.37,0-10.74.34-16.1.3-4.56.77-9.12,1.36-13.66-.44,3.39.07-.35.19-1.19q.26-1.7.53-3.4.68-4.25,1.47-8.48c2-10.91,4.37-21.75,6.75-32.58,4.91-22.36,9.93-44.8,16-66.87q1.5-5.45,3.43-10.76c.33-.9,3-7,1-2.62.94-2,1.87-4.08,2.91-6.08a93.79,93.79,0,0,1,5.48-8.94c2.3-3.41-2,1.86-.09.16.6-.55,1.09-1.25,1.65-1.85s1.41-1.46,2.15-2.15c.51-.47,3.27-2.35.92-.89s2.34-1.3,3.07-1.75c2.35-1.45-.74,1.1-1.14.41,0,0,2.38-.77,2.2-.72s2.27-.52,2.27-.54c-.11.86-4.07.16-1.23.2a12.94,12.94,0,0,0,3.09,0c1.39-.43-2.92-.9,0,0,1.08.33,2.21.68,3.3,1,2.38.61-2.57-1.56-.53-.19,1,.64,6,4.11,2.71,1.36a56.13,56.13,0,0,1,4.18,3.85c.67.69,1.32,1.4,2,2.13,1,1.1,2.59,3.46.84.94a156.51,156.51,0,0,1,13.69,25c.5,1.1,1,2.2,1.47,3.31,1.47,3.31.63,1.43.32.69,1.06,2.5,2.06,5,3,7.55q3.1,8,5.75,16.2a309.82,309.82,0,0,1,8.2,30.57q1.61,7.52,2.85,15.11c.39,2.38.76,4.77,1.08,7.16-.42-3.13.07.74.16,1.5q.27,2.25.5,4.5a306.19,306.19,0,0,1,1.62,32.51c0,11-1.26,22-.68,33,.66,12.52,3.58,25.21,10.65,35.75A79.55,79.55,0,0,0,809,712.39c16.33,10.61,35.9,16,54.72,20.27,9.16,2.07,19.91-2.79,22.14-12.57,2.08-9.14-2.75-19.92-12.57-22.14A256.39,256.39,0,0,1,847.7,691q-3-1-5.94-2.14-1.63-.63-3.24-1.29c.55.23,3.45,1.59.49.16a108.74,108.74,0,0,1-11.33-6.1c-1-.63-5.88-4.34-2.27-1.38-1.51-1.24-3-2.48-4.4-3.84-.81-.78-3.73-3-3.95-4.22.28,1.56,1.64,2.39.46.59-.71-1.08-1.45-2.13-2.11-3.24-.56-.94-1-1.91-1.56-2.86-.65-1.16-2.35-3-.06.06-1.21-1.64-1.52-4.56-2-6.54.08.36-.87-5.43-.59-3s-.21-3.49-.18-3.07c-.17-3.07-.16-6.15-.09-9.22.26-11.27,1-22.47.63-33.75a343.8,343.8,0,0,0-3.19-36.33,313.84,313.84,0,0,0-16.2-65.75c-7.6-20.72-16.33-43-31.51-59.5-15.39-16.71-38.94-22.62-59.48-12-17.32,9-27.2,28.11-33.6,45.64-3.39,9.3-5.58,19-8,28.57q-4.52,18.22-8.67,36.53c-11.18,49.27-26,104.68-1.08,152.23,8.33,15.9,33.9,8.41,33.54-9.08l-2.48-121c-.39-19.27-.32-38.62-1.34-57.87-1-18.67-4.06-38.61-15.2-54.19s-27.27-26.89-46.92-27.24c-19-.34-37.52,10.27-49,25-11.78,15-18,32.89-22.65,51.22a449,449,0,0,0-10.76,59.5c-5.1,43.87-2.94,88.26,5.34,131.61,1.67,8.78,11.55,14,19.75,12.89,8.61-1.16,15.8-8.67,15.61-17.68L573,564.16c-.84-38.68,2.66-85.19-27-115-15.57-15.63-38.34-24.21-60.11-18.06-9.06,2.56-15.58,12.85-12.57,22.14s12.43,15.31,22.14,12.57Z" transform="translate(-185.51 -63.19)" fill="#fff"/>
  <path d="M1033,279c9.42,0,18.44-8.28,18-18s-7.91-18-18-18c-9.42,0-18.44,8.28-18,18s7.91,18,18,18Z" transform="translate(-185.51 -63.19)" fill="#fff"/>
</svg>
