<svg id="Layer_1" data-name="Layer 1" xmlns="http://www.w3.org/2000/svg" viewBox="0 0 882.75 842.14">
  <title>taurus</title>
  <g>
    <polygon points="232.37 534.66 19.4 330.97 310.62 285.83 438.52 20.34 571.45 283.35 863.47 322.95 654.41 530.65 706.98 820.62 444.85 685.97 185.32 825.57 232.37 534.66"/>
    <path d="M617.2,136.78,739.77,379.29l4.27,8.45,9.38,1.27,269.26,36.52L829.9,617l-6.71,6.67,1.69,9.31,48.48,267.37L631.65,776.23l-8.42-4.32-8.33,4.48L375.6,905.11,419,636.87l1.51-9.34L413.66,621,217.28,433.18,485.8,391.55l9.35-1.45,4.11-8.53L617.2,136.78m-.39-40.67L483,373.76,178.48,421,401.22,634,352,938.24l271.42-146L897.58,933.06l-55-303.26,218.64-217.21-305.4-41.42-139-275.07Z" transform="translate(-178.48 -96.11)"/>
  </g>
  <path d="M532.43,541.71a1.5,1.5,0,0,0,0-3,1.5,1.5,0,0,0,0,3Z" transform="translate(-178.48 -96.11)"/>
  <circle cx="446.02" cy="515.39" r="102.5" fill="none" stroke="#fff" stroke-miterlimit="10" stroke-width="20"/>
  <path d="M558,512a56.85,56.85,0,0,0-7.66-32.26c-5.78-10.16-14.32-19.13-24.28-26.41a123.47,123.47,0,0,0-33.4-17A150.72,150.72,0,0,0,455,429a153.23,153.23,0,0,1,38.94,2.47,131,131,0,0,1,37.47,13.41,98.74,98.74,0,0,1,31.42,26.56,76.36,76.36,0,0,1,10.49,18.86A72.65,72.65,0,0,1,578,512Z" transform="translate(-178.48 -96.11)" fill="#fff"/>
  <path d="M650,509a97.1,97.1,0,0,1,10.22-37.73A95.49,95.49,0,0,1,752,419a92.56,92.56,0,0,0-34,9,88.33,88.33,0,0,0-27.27,20.57A83.18,83.18,0,0,0,674,477.17,79.53,79.53,0,0,0,670,509Z" transform="translate(-178.48 -96.11)" fill="#fff"/>
  <path d="M563,488c0,13.27,2.24,24,5,24" transform="translate(-178.48 -96.11)" fill="none" stroke="#fff" stroke-miterlimit="10" stroke-width="20"/>
</svg>
